<svg width="44" height="44" viewBox="0 0 44 44" fill="none" xmlns="http://www.w3.org/2000/svg">
<path d="M7.33332 36.6666C6.32499 36.6666 5.4618 36.3076 4.74374 35.5895C4.02568 34.8714 3.66666 34.0083 3.66666 32.9999V10.9999C3.66666 9.99159 4.02568 9.12839 4.74374 8.41034C5.4618 7.69228 6.32499 7.33325 7.33332 7.33325H36.6667C37.675 7.33325 38.5382 7.69228 39.2562 8.41034C39.9743 9.12839 40.3333 9.99159 40.3333 10.9999V32.9999C40.3333 34.0083 39.9743 34.8714 39.2562 35.5895C38.5382 36.3076 37.675 36.6666 36.6667 36.6666H7.33332ZM22 23.8333L7.33332 14.6666V32.9999H36.6667V14.6666L22 23.8333ZM22 20.1666L36.6667 10.9999H7.33332L22 20.1666ZM7.33332 14.6666V10.9999V32.9999V14.6666Z" fill="#F7F7F7"/>
</svg>
