<svg width="494" height="493" viewBox="0 0 494 493" fill="none" xmlns="http://www.w3.org/2000/svg">
<path d="M181 233.5V79C181 76.2386 183.239 74 186 74H413C415.761 74 418 76.2386 418 79V233.5C418 236.261 415.761 238.5 413 238.5H186C183.239 238.5 181 236.261 181 233.5Z" stroke="#682E8C" stroke-width="12"/>
<circle cx="309" cy="53" r="30.5" stroke="#682E8C"/>
<path d="M435 43H163C157.477 43 153 47.4771 153 53V229C153 234.523 157.477 239 163 239H435C440.523 239 445 234.523 445 229V53C445 47.4772 440.523 43 435 43Z" stroke="#682E8C" stroke-width="12"/>
<g filter="url(#filter0_d_26_32)">
<path d="M233.989 136.886L233.313 137.619C229.555 141.69 229.823 148.04 233.911 151.78L243.231 160.307C247.06 163.81 252.932 163.802 256.752 160.288L257.679 159.435C260.607 156.742 264.853 156.04 268.492 157.647L278.042 161.867C281.664 163.468 284 167.054 284 171.014V174C284 179.523 288.477 184 294 184H305C310.523 184 315 179.523 315 174V171.014C315 167.054 317.336 163.468 320.958 161.867L330.976 157.441C334.373 155.94 338.322 156.445 341.232 158.753L343.934 160.896C347.949 164.08 353.721 163.714 357.302 160.048L365.504 151.65C369.166 147.902 369.313 141.962 365.841 138.037L364.55 136.578C362.064 133.768 361.36 129.802 362.727 126.308L367.013 115.356C368.513 111.523 372.209 109 376.325 109H377C382.523 109 387 104.523 387 99V88C387 82.4771 382.523 78 377 78H376.48C372.287 78 368.539 75.3841 367.093 71.4482L362.452 58.8141C361.242 55.521 361.863 51.8337 364.085 49.1184C367.196 45.3158 367.053 39.808 363.748 36.1725L355.992 27.6409C352.37 23.6567 346.243 23.2557 342.133 26.7337L341.277 27.4578C338.355 29.9305 334.277 30.518 330.776 28.9708L320.773 24.5508C317.264 23.0002 315 19.5251 315 15.6887C315 10.3378 310.662 6 305.311 6H294C288.477 6 284 10.4772 284 16V16.2924C284 20.5967 281.246 24.4181 277.162 25.7792L265.719 29.5938C262.201 30.7663 258.294 29.8685 255.615 27.3055C251.686 23.5479 245.428 23.5717 241.584 27.4157L233.167 35.8327C229.423 39.5766 229.247 45.59 232.764 49.5474L234.524 51.5265C236.972 54.281 237.707 58.1589 236.436 61.6183L231.907 73.9482C230.461 77.8841 226.713 80.5 222.52 80.5H221C215.477 80.5 211 84.9771 211 90.5V99C211 104.523 215.477 109 221 109H221.572C225.488 109 229.043 111.285 230.669 114.847L235.738 125.951C237.411 129.615 236.722 133.926 233.989 136.886Z" fill="white"/>
<path d="M233.989 136.886L233.313 137.619C229.555 141.69 229.823 148.04 233.911 151.78L243.231 160.307C247.06 163.81 252.932 163.802 256.752 160.288L257.679 159.435C260.607 156.742 264.853 156.04 268.492 157.647L278.042 161.867C281.664 163.468 284 167.054 284 171.014V174C284 179.523 288.477 184 294 184H305C310.523 184 315 179.523 315 174V171.014C315 167.054 317.336 163.468 320.958 161.867L330.976 157.441C334.373 155.94 338.322 156.445 341.232 158.753L343.934 160.896C347.949 164.08 353.721 163.714 357.302 160.048L365.504 151.65C369.166 147.902 369.313 141.962 365.841 138.037L364.55 136.578C362.064 133.768 361.36 129.802 362.727 126.308L367.013 115.356C368.513 111.523 372.209 109 376.325 109H377C382.523 109 387 104.523 387 99V88C387 82.4771 382.523 78 377 78H376.48C372.287 78 368.539 75.3841 367.093 71.4482L362.452 58.8141C361.242 55.521 361.863 51.8337 364.085 49.1184C367.196 45.3158 367.053 39.808 363.748 36.1725L355.992 27.6409C352.37 23.6567 346.243 23.2557 342.133 26.7337L341.277 27.4578C338.355 29.9305 334.277 30.518 330.776 28.9708L320.773 24.5508C317.264 23.0002 315 19.5251 315 15.6887C315 10.3378 310.662 6 305.311 6H294C288.477 6 284 10.4772 284 16V16.2924C284 20.5967 281.246 24.4181 277.162 25.7792L265.719 29.5938C262.201 30.7663 258.294 29.8685 255.615 27.3055C251.686 23.5479 245.428 23.5717 241.584 27.4157L233.167 35.8327C229.423 39.5766 229.247 45.59 232.764 49.5474L234.524 51.5265C236.972 54.281 237.707 58.1589 236.436 61.6183L231.907 73.9482C230.461 77.8841 226.713 80.5 222.52 80.5H221C215.477 80.5 211 84.9771 211 90.5V99C211 104.523 215.477 109 221 109H221.572C225.488 109 229.043 111.285 230.669 114.847L235.738 125.951C237.411 129.615 236.722 133.926 233.989 136.886Z" stroke="#682E8C" stroke-width="12"/>
</g>
<path d="M341.5 95.5C341.5 118.696 322.696 137.5 299.5 137.5C276.304 137.5 257.5 118.696 257.5 95.5C257.5 72.304 276.304 53.5 299.5 53.5C322.696 53.5 341.5 72.304 341.5 95.5Z" fill="white" stroke="#682E8C" stroke-width="12"/>
<path d="M124 239H473.5" stroke="#682E8C" stroke-width="12"/>
<path d="M127 233V265.5C127 271.023 131.477 275.5 137 275.5H463.5C469.023 275.5 473.5 271.023 473.5 265.5V233" stroke="#682E8C" stroke-width="12"/>
<path d="M183 107H16C10.4772 107 6 111.477 6 117V188C6 193.523 10.4771 198 16 198H183C188.523 198 193 193.523 193 188V117C193 111.477 188.523 107 183 107Z" fill="white" stroke="#682E8C" stroke-width="12"/>
<path d="M146 170L157.569 157.789C161.188 153.968 161.227 147.996 157.657 144.128L146 131.5" stroke="#682E8C" stroke-width="12"/>
<path d="M89 177.5L114.5 124.5" stroke="#682E8C" stroke-width="12"/>
<path d="M56.5 131.5L43.6126 144.057C39.8783 147.696 39.5662 153.593 42.8956 157.605L56.5 174" stroke="#682E8C" stroke-width="12"/>
<path d="M72 306H16C10.4772 306 6 310.477 6 316V468C6 473.523 10.4772 478 16 478H62C67.5228 478 72 473.523 72 468V462M72 306V462M72 306H106.5C112.023 306 116.5 310.477 116.5 316V452C116.5 457.523 112.023 462 106.5 462H72" stroke="#682E8C" stroke-width="12"/>
<path d="M119 319H210.442C213.338 319 216.091 320.255 217.99 322.44L259.048 369.678C260.629 371.498 261.5 373.828 261.5 376.238V393C261.5 398.523 257.023 403 251.5 403H233.002C230.433 403 227.963 402.011 226.103 400.239L197 372.5" stroke="#682E8C" stroke-width="12"/>
<path d="M116.5 454.5H179.867C181.907 454.5 183.898 455.124 185.573 456.287L226.951 485.034C229.216 486.608 232.03 487.176 234.728 486.605L480.558 434.546C483.666 433.888 486.313 431.79 486.932 428.675C488.586 420.35 488.287 403.215 462.163 393.12C461.086 392.704 459.91 392.5 458.755 392.5H264" stroke="#682E8C" stroke-width="12"/>
<defs>
<filter id="filter0_d_26_32" x="201" y="0" width="196" height="198" filterUnits="userSpaceOnUse" color-interpolation-filters="sRGB">
<feFlood flood-opacity="0" result="BackgroundImageFix"/>
<feColorMatrix in="SourceAlpha" type="matrix" values="0 0 0 0 0 0 0 0 0 0 0 0 0 0 0 0 0 0 127 0" result="hardAlpha"/>
<feOffset dy="4"/>
<feGaussianBlur stdDeviation="2"/>
<feComposite in2="hardAlpha" operator="out"/>
<feColorMatrix type="matrix" values="0 0 0 0 0 0 0 0 0 0 0 0 0 0 0 0 0 0 0.25 0"/>
<feBlend mode="normal" in2="BackgroundImageFix" result="effect1_dropShadow_26_32"/>
<feBlend mode="normal" in="SourceGraphic" in2="effect1_dropShadow_26_32" result="shape"/>
</filter>
</defs>
</svg>

