<svg width="807" height="879" viewBox="0 0 807 879" fill="none" xmlns="http://www.w3.org/2000/svg">
<path d="M493.075 173.528L18.0117 4H4V54.0576L18.0117 76.7504L47.3696 108.12L72.0569 120.134L103.416 136.82V120.134L119.43 108.12L138.112 120.134L167.47 136.82L184.15 159.512L218.846 173.528L241.532 186.21V217.579V256.958L254.209 289.662L280.898 317.027V349.731L293.575 376.429L312.258 424.484L334.943 451.181L353.625 479.881L367.637 509.248L392.992 531.941L411.007 569.317L429.689 594.012L450.373 600.019L467.053 624.714L493.075 648.074L564.468 668.765L551.791 701.469L564.468 732.839L581.149 753.529L611.841 771.55L638.53 780.227L647.204 806.924L665.886 825.612H692.575L735.945 873L802 806.924L789.99 771.55V732.839L769.306 701.469L735.945 648.074V608.696L756.629 600.019L789.99 608.696L802 594.012L789.99 451.181V424.484V289.662L735.945 238.27L747.955 204.898V173.528H493.075Z" stroke="#682E8C" stroke-width="7"/>
</svg>
