<svg width="34" height="34" viewBox="0 0 34 34" fill="none" xmlns="http://www.w3.org/2000/svg">
<g clip-path="url(#clip0_22_159)">
<path d="M25.1583 19.5368C25.092 19.505 22.6133 18.2844 22.1729 18.1259C21.9931 18.0613 21.8004 17.9983 21.5955 17.9983C21.2608 17.9983 20.9797 18.1651 20.7607 18.4927C20.5131 18.8608 19.7635 19.7369 19.5319 19.9987C19.5017 20.0332 19.4604 20.0745 19.4357 20.0745C19.4135 20.0745 19.0299 19.9165 18.9137 19.8661C16.2548 18.7111 14.2365 15.9336 13.9598 15.4652C13.9203 15.3978 13.9186 15.3673 13.9183 15.3673C13.928 15.3316 14.0174 15.242 14.0636 15.1957C14.1986 15.0621 14.3448 14.8861 14.4863 14.7157C14.5534 14.635 14.6205 14.5542 14.6864 14.4781C14.8917 14.2392 14.9831 14.0537 15.0891 13.8389L15.1446 13.7273C15.4034 13.2132 15.1824 12.7794 15.1109 12.6393C15.0523 12.5221 14.0057 9.99615 13.8944 9.73077C13.6269 9.0904 13.2733 8.79224 12.7819 8.79224C12.7363 8.79224 12.7819 8.79224 12.5907 8.80029C12.3579 8.81012 11.0901 8.97703 10.5295 9.33039C9.93509 9.70516 8.92944 10.8998 8.92944 13.0007C8.92944 14.8916 10.1294 16.6769 10.6446 17.3559C10.6574 17.373 10.6809 17.4078 10.715 17.4577C12.688 20.3391 15.1476 22.4745 17.6409 23.4705C20.0414 24.4294 21.1781 24.5402 21.8243 24.5402H21.8244C22.0959 24.5402 22.3133 24.5189 22.505 24.5L22.6267 24.4884C23.4559 24.4149 25.2783 23.4706 25.6928 22.3187C26.0193 21.4114 26.1054 20.4201 25.8882 20.0604C25.7394 19.8157 25.4829 19.6927 25.1583 19.5368Z" fill="#F7F7F7"/>
<path d="M17.3018 0C8.09352 0 0.602039 7.43518 0.602039 16.5742C0.602039 19.5301 1.39309 22.4236 2.89163 24.9559L0.023377 33.4167C-0.0300516 33.5744 0.00968864 33.7489 0.12637 33.8676C0.210598 33.9536 0.324851 34 0.441533 34C0.486241 34 0.53128 33.9933 0.575215 33.9792L9.39755 31.1758C11.8118 32.4657 14.5404 33.1466 17.3019 33.1466C26.5093 33.1467 34 25.7123 34 16.5742C34 7.43518 26.5093 0 17.3018 0ZM17.3018 29.6941C14.7033 29.6941 12.1865 28.9438 10.0231 27.5242C9.95038 27.4764 9.86594 27.4519 9.78094 27.4519C9.73601 27.4519 9.69097 27.4588 9.64714 27.4727L5.22769 28.8775L6.65437 24.6684C6.70051 24.5322 6.67744 24.382 6.59244 24.2658C4.94499 22.0148 4.07412 19.3552 4.07412 16.5742C4.07412 9.33896 10.008 3.45255 17.3017 3.45255C24.5944 3.45255 30.5277 9.33896 30.5277 16.5742C30.5278 23.8086 24.5947 29.6941 17.3018 29.6941Z" fill="#F7F7F7"/>
</g>
<defs>
<clipPath id="clip0_22_159">
<rect width="34" height="34" fill="white"/>
</clipPath>
</defs>
</svg>
